<?xml version="1.0"?>

<svg width="100%" height="100%" viewBox="0 0 897 237" version="1.1" xmlns="http://www.w3.org/2000/svg" xmlns:xlink="http://www.w3.org/1999/xlink" xml:space="preserve" xmlns:serif="http://www.serif.com/" style="fill:#e8f4d0;fill-rule:evenodd;clip-rule:evenodd;stroke-linejoin:round;stroke-miterlimit:2;">
    <g transform="matrix(1,0,0,1,-11120.3,-708.661)">
        <g id="Artboard4" transform="matrix(1,0,0,1,-0.419948,0)">
            <rect x="10074.4" y="0" width="3507.87" height="3925.7" style="fill:none;"></rect>
            <g transform="matrix(1.84638,0,0,1.84638,-9296.57,-800.889)">
                <g>
                    <g transform="matrix(1.01746,0,0,1.00406,-877.206,-4.58055)">
                        <path d="M11783.1,899.015C11783.1,908.432 11783.2,914.7 11781.5,919.551C11780.1,923.394 11776.3,926.487 11772.7,928.117C11769.2,929.748 11763.4,929.806 11760.2,929.334C11757.6,928.954 11755,927.054 11753.6,925.284C11752.1,923.515 11751.8,920.699 11751.7,918.717C11751.6,916.896 11752,914.952 11752.9,913.392C11753.9,911.832 11755.7,910.411 11757.3,909.357C11759.1,908.245 11761.5,907.469 11763.6,906.719C11765.9,905.931 11768.5,905.391 11770.9,904.628C11773.5,903.794 11777.3,902.647 11779.3,901.712C11780.8,901.068 11781.3,900.624 11783.1,899.015ZM11758.7,851.592C11756.2,851.633 11753.8,852.641 11751.5,853.552C11749.1,854.462 11746.8,855.675 11744.8,857.056C11742.9,858.417 11741,860.019 11739.5,861.834C11738,863.649 11736.6,865.729 11735.7,867.946C11734.7,870.344 11733.9,873.786 11733.5,876.228C11733.1,878.323 11733.1,882.599 11733.1,882.599L11752.9,882.599C11752.9,882.599 11753.1,879.852 11753.5,878.581C11754,877.148 11754.9,875.293 11756.1,873.998C11757.2,872.703 11759.1,871.556 11760.5,870.812C11761.8,870.14 11763.2,869.796 11764.7,869.538C11766.2,869.263 11768,869.085 11769.7,869.161C11771.4,869.238 11773.5,869.489 11775,870.004C11776.5,870.488 11778.1,871.49 11779.1,872.252C11780,872.872 11780.7,873.687 11781.2,874.576C11781.7,875.465 11782.2,876.523 11782.3,877.583C11782.3,878.671 11782,880.117 11781.5,881.102C11780.9,882.088 11780,882.859 11779.1,883.495C11777.9,884.309 11776,885.275 11774.4,885.983C11772.6,886.779 11770.2,887.617 11768.1,888.274C11765.5,889.08 11761.2,890.079 11758.7,890.822C11756.8,891.386 11754.9,892.127 11753,892.733C11751,893.37 11748.7,893.857 11746.7,894.645C11744.8,895.42 11742.8,896.282 11741.1,897.461C11739.2,898.736 11737,900.347 11735.4,902.29C11733.8,904.272 11732.4,906.81 11731.6,909.357C11730.8,912.021 11730.2,915.28 11730.4,918.276C11730.6,921.993 11731,927.62 11733.1,931.655C11735.2,935.69 11738.7,940.046 11742.9,942.486C11747,944.926 11751,946.272 11758,946.296C11767.4,946.328 11766.1,946.296 11770.2,946.296L11784.4,946.296L11802.6,922.671L11802.6,872.995C11802.6,870.74 11798.9,857.597 11784,853.02C11777.3,850.951 11764.1,851.503 11758.7,851.592Z"></path>
                    </g>
                    <g transform="matrix(1.07633,0,0,1.04852,-1581.75,-43.7369)">
                        <path d="M11872,943.468L11867.4,925.166L11824,925.212L11867.4,872.745L11867.4,853.063L11803.4,853.016L11803.4,872.745L11844.2,872.598L11799.7,925.212L11799.7,943.526L11872,943.468Z"></path>
                    </g>
                    <g transform="matrix(1.08972,0,0,1.08972,-585.163,173.024)">
                        <path d="M10922.2,665.824L10922.2,621.894L10897.6,621.894L10897.6,667.192L10874.7,683.861C10874.7,662.355 10874.8,621.894 10874.8,621.894L10850.1,621.894L10850.1,667.203L10827.1,683.861L10827.1,621.894L10802.5,621.894L10802.5,697.215C10802.5,703.285 10807.1,708.937 10813.8,708.937L10830.8,708.881C10830.8,708.881 10846.8,697.042 10851.7,693.4L10851.7,708.881L10874.1,708.903C10877.3,708.903 10879.9,707.621 10882.4,705.887C10892.2,699.123 10904.3,689.584 10911.5,684.381C10917.9,679.699 10922.2,675.883 10922.2,665.824Z"></path>
                    </g>
                    <g transform="matrix(0.45623,0,0,0.45623,6292.21,291.208)">
                        <path d="M11107.5,1306.89L11022.4,1306.89C11022.4,1292.83 11040.8,1272.05 11064.9,1272.05C11089.1,1272.05 11107.5,1288.66 11107.5,1306.89ZM11018.9,1344.09L11165.2,1343.23C11165.2,1343.23 11166.1,1321.59 11164.2,1311.02C11162.1,1299.65 11157.8,1284.94 11152.9,1274.97C11148.5,1266.03 11141.4,1257.75 11134.6,1251.24C11128.1,1244.97 11119,1239.55 11112.2,1235.93C11106.5,1232.89 11100.2,1230.93 11093.9,1229.53C11086.8,1227.95 11076.7,1226.81 11069.7,1226.46C11063.6,1226.16 11057.4,1226.7 11051.5,1227.41C11045.7,1228.11 11039.3,1229.37 11034.2,1230.71C11029.8,1231.89 11025.4,1233.49 11021.2,1235.43C11016.6,1237.6 11010.9,1240.29 11006.3,1243.7C11000.8,1247.84 10993.3,1253.82 10988.2,1260.24C10982.4,1267.52 10975.2,1277.41 10971.6,1287.4C10967.5,1299.02 10963.4,1315.48 10963.4,1329.92C10963.4,1344.68 10965.1,1361.84 10971.6,1375.98C10978.3,1390.35 10989.7,1406.5 11003.5,1416.14C11017.3,1425.79 11036.6,1432.09 11054.3,1433.86C11072,1435.63 11095.3,1431.69 11109.8,1426.77C11122.1,1422.61 11133.4,1413.19 11141.7,1404.33C11149.8,1395.69 11159.4,1373.62 11159.4,1373.62L11111,1360.63C11111,1360.63 11106.1,1372.05 11101.6,1375.98C11096.6,1380.32 11088.6,1385.12 11081,1386.61C11072.6,1388.27 11059.8,1388.31 11051.2,1385.94C11043,1383.68 11034.5,1377.25 11029.5,1372.44C11025.3,1368.41 11023,1361.81 11021.2,1357.09C11019.7,1352.96 11018.9,1344.09 11018.9,1344.09Z"></path>
                    </g>
                    <g transform="matrix(1.19996,0,0,1.01955,-3171.31,-16.8628)">
                        <path d="M12158.3,877.419L12158.3,850.987C12158.3,850.987 12140.5,850.881 12135.4,851.614C12132.6,852.013 12130,853.513 12127.9,855.384C12125.6,857.475 12122.8,860.759 12121.5,864.163C12120.2,867.835 12120,871.632 12119.9,877.419C12119.8,891.149 12119.9,943.948 12119.9,943.948L12140.2,943.984C12140.2,924.584 12140.2,905.183 12140.2,885.782C12141.6,874.39 12158,877.419 12158.3,877.419Z"></path>
                    </g>
                    <g transform="matrix(1.18594,0,0,1.01697,-3027.58,-14.5602)">
                        <path d="M12227.2,944.045L12254.7,944.104L12216.8,889.855L12246.1,850.835L12221.2,850.787L12195.9,886.176L12195.9,818.243L12174.3,818.243L12174.3,944.045L12195.9,944.045L12195.9,915.74L12202.6,906.933L12227.2,944.045Z"></path>
                    </g>
                    <g transform="matrix(0.634536,0,0,0.623441,4195.07,328.528)">
                        <path d="M11558.7,848.043C11563.1,851.377 11567.5,856.046 11570.4,860.355C11573,864.414 11574.7,869.521 11575.8,873.901C11576.9,878.034 11576.9,886.634 11576.9,886.634L11545.3,886.625C11545.3,886.625 11544.9,882.197 11544.2,880.097C11543.5,877.977 11542.6,875.702 11541.2,873.901C11539.8,872.06 11537.7,870.146 11535.5,869.051C11533.1,867.867 11529.7,867.13 11526.6,866.8C11523.6,866.465 11519.9,866.583 11517.1,867.042C11514.7,867.45 11512.1,868.154 11510.1,869.553C11508,870.975 11505.6,873.486 11504.6,875.578C11503.6,877.536 11503.4,879.939 11503.8,882.106C11504.1,884.282 11505,886.869 11506.6,888.633C11508.3,890.558 11511.3,892.524 11514.1,893.655C11518,895.245 11525.6,897.002 11530.2,898.174C11533.8,899.121 11537.6,899.711 11541.2,900.684C11545,901.689 11549.1,902.603 11552.8,904.199C11556.9,906.001 11562.5,908.568 11566.2,911.497C11569.9,914.308 11573.1,917.897 11575.4,921.774C11577.6,925.65 11579.2,930.223 11579.9,934.753C11580.6,939.774 11581,946.292 11579.9,951.901C11578.7,957.688 11577,964.577 11573.1,969.475C11568.7,974.915 11561.2,981.442 11553.7,984.539C11545.4,987.91 11533.3,989.385 11523.6,989.703C11513.3,990.035 11503.7,987.743 11495.7,984.539C11488.1,981.487 11480,975.333 11475.4,970.48C11471.6,966.438 11469.8,960.488 11468.4,955.416C11467,950.458 11466.9,940.044 11466.9,940.044L11501,940.044C11501,940.044 11501.2,945.19 11502.2,947.528C11503.2,950.027 11505,952.963 11507.1,955.034C11509.3,957.12 11512.5,959.02 11515.3,960.047C11518.1,961.059 11521.2,961.466 11524.1,961.194C11527.3,960.898 11531.4,960.001 11534.6,958.273C11537.7,956.545 11541.6,953.946 11542.9,950.826C11544.2,947.706 11543.7,942.652 11542.3,939.554C11540.9,936.456 11537.8,933.798 11534.6,932.238C11530.5,930.236 11522.8,928.957 11517.7,927.546C11513.2,926.287 11508.5,925.531 11504.2,923.769C11498.7,921.552 11490.1,918.996 11484.9,914.242C11479.7,909.487 11474.9,901.965 11473,895.241C11471.1,888.518 11473.4,873.901 11473.4,873.901L11504.6,837.591C11504.6,837.591 11524.6,837.323 11531.1,837.782C11535.4,838.08 11539.6,838.873 11543.6,840.347C11548.1,842.057 11554.2,844.708 11558.7,848.043Z"></path>
                    </g>
                </g>
            </g>
        </g>
    </g>
</svg>